<!-- created by svgstack.com | Attribution is required. --><svg xmlns="http://www.w3.org/2000/svg" width="1024" height="1024"><path fill="#FC7F24" d="M571.896 281.124c29.352-23.356 75.866-22.372 106.77-2.202 3.942 2.572 12.364 10.456 16.094 11.338 6.522-.536 15.142-.488 21.508.906 44.806 4.828 85.048 26.402 113.448 61.566 71.542 88.58 57.29 202.328 43.742 307.01-2.308 17.836-3.462 36.61-7.808 54.062-14.63 58.742-66.204 108.116-123.43 125.75-7.468 2.3-15.14 3.85-22.66 5.954-7.224-.356-14.502-.034-21.736 0-36.334 31.272-80.912 48.698-125.928 24.78-1.82.5-3.652.972-5.448 1.552-6.68 2.96-11.788 8.316-18.038 11.972-34.404 20.124-59.032 7.21-87.888-9.988-3.018-1.398-6.28-2.414-9.414-3.536-6.734 1.37-12.838 4.984-19.382 7.056-29.238 9.258-59.302-.036-83.826-16.764-6.936-4.73-12.614-11.55-20.332-15.072-3.554-.256-7.2-.068-10.76 0h-5.458c-8.362-2.498-17.132-2.948-25.548-5.262-64.064-17.604-113.944-71.072-127.839-135.866-23.842-111.18-40.91-269.244 41.904-358.272 24.807-26.666 71.063-54.484 108.113-55.848 3.996-1.316 7.34-1.788 11.506-1.826 18.95-2.43 9.892 1.704 28.332-9.216 30.19-17.882 75.148-22.326 103.29 1.906 3.442 2.164 6.36 4.642 9.414 7.31 1.378-1.058 2.418-2.718 3.468-4.104 6.316-4.09 11.702-8.742 18.482-12.38 18.722-8.492 37.096-7.854 56.118-.684l1.79.684c5.908 3.784 11.21 7.49 16.292 12.38 2.466 1.772 4.528 3.422 6.322 5.93 2.688-3.584 5.336-6.412 8.902-9.136"/><path fill="#FC7F24" d="M571.896 281.124c29.352-23.356 75.866-22.372 106.77-2.202 3.942 2.572 12.364 10.456 16.094 11.338 6.522-.536 15.142-.488 21.508.906 44.806 4.828 85.048 26.402 113.448 61.566 71.542 88.58 57.29 202.328 43.742 307.01-2.308 17.836-3.462 36.61-7.808 54.062-14.63 58.742-66.204 108.116-123.43 125.75-7.468 2.3-15.14 3.85-22.66 5.954-7.224-.356-14.502-.034-21.736 0-36.334 31.272-80.912 48.698-125.928 24.78-1.82.5-3.652.972-5.448 1.552-.592-1.874 11.32-16.912 13.118-19.708 13.622-21.176 24.892-44.452 34.504-67.708 3.826-9.256 6.238-19.462 10.82-28.338 3.602-6.7 7.99-12.842 12.248-19.126 4.868-4.44 10.584-7.752 15.284-12.458 25.348-11.312 56.588-54.89 68.832-78.256 3.32-6.338 25.892-52.642 18.334-55.704-4.984 1.582-16.732 14.888-21.336 19.092-15.09 13.772-30.75 26.336-47.628 37.83-3.986 2.924-8.684 5.778-12.228 9.164-2.232-1.842-4.13-4.872-5.974-7.142 2.416-27.498 5.86-56.324 4.158-83.982-49.482 4.512-96.18-51.938-72.942-91.4 10.512-17.854 34.716-22.128 53.5-27.01-9.112-39.374-39.976-130.238-74.144-156.834 2.688-3.584 5.336-6.412 8.902-9.136"/><path fill="#FC7F24" d="M716.268 291.166c44.806 4.828 85.048 26.402 113.448 61.566 71.542 88.58 57.29 202.328 43.742 307.01-2.308 17.836-3.462 36.61-7.808 54.062-14.63 58.742-66.204 108.116-123.43 125.75-7.468 2.3-15.14 3.85-22.66 5.954.214-5.084 15.446-20.45 19.278-25.61 17.534-23.628 29.282-50.078 39.362-77.59 47.402-129.38 41.054-329.292-52.794-439.586-2.674-3.142-8.348-7.478-9.138-11.556"/><path fill="#38394C" d="M652.422 441.214c9.212-4.452 18.666-8.388 27.832-12.934 10.212-5.066 32.466-21.3 40.028-4.11 5.026 11.426-7.732 72.796-11.244 86.728-5.86 23.244-14.914 36.304-34.95 50.512-5.748 1.67-11.556 3.334-17.508 4.094-49.482 4.512-96.18-51.938-72.942-91.4 10.512-17.854 34.716-22.128 53.5-27.01 5.02-2.248 10.062-4.158 15.284-5.88"/><path fill="#F95D18" d="M694.76 290.26c6.522-.536 15.142-.488 21.508.906.79 4.078 6.464 8.414 9.138 11.556 93.848 110.294 100.196 310.206 52.794 439.586-10.08 27.512-21.828 53.962-39.362 77.59-3.832 5.16-19.064 20.526-19.278 25.61-7.224-.356-14.502-.034-21.736 0 3.062-4.954 7.82-9.304 11.576-13.766 103.81-123.302 109.358-389.318 4.714-518.294-6.34-7.816-13.488-15-19.354-23.188"/><path fill="#F95D18" d="M571.896 281.124c41.91 34.322 68.282 109.168 80.526 160.09-5.222 1.722-10.264 3.632-15.284 5.88-9.112-39.374-39.976-130.238-74.144-156.834 2.688-3.584 5.336-6.412 8.902-9.136"/><path fill="#F95D18" d="M637.138 736.96c4.868-4.44 10.584-7.752 15.284-12.458 1.794 8.308-3.242 17.23-5.982 24.854-13.11 36.48-32.42 91.268-65.186 115.444-2.866 2.116-6.758 3.222-9.358 5.488-1.82.5-3.652.972-5.448 1.552-.592-1.874 11.32-16.912 13.118-19.708 13.622-21.176 24.892-44.452 34.504-67.708 3.826-9.256 6.238-19.462 10.82-28.338 3.602-6.7 7.99-12.842 12.248-19.126"/><path fill="#F95D18" d="M656.58 565.504c5.952-.76 11.76-2.424 17.508-4.094 1.062 20.204-.522 41.158-2.346 61.282-.516 5.69-4.922 20.554-1.118 24.772-3.986 2.924-8.684 5.778-12.228 9.164-2.232-1.842-4.13-4.872-5.974-7.142 2.416-27.498 5.86-56.324 4.158-83.982"/><path fill="#FEAD4B" d="M482.472 271.95c18.722-8.492 37.096-7.854 56.118-.684l1.79.684c5.908 3.784 11.21 7.49 16.292 12.38 2.466 1.772 4.528 3.422 6.322 5.93 34.168 26.596 65.032 117.46 74.144 156.834-18.784 4.882-42.988 9.156-53.5 27.01-23.238 39.462 23.46 95.912 72.942 91.4 1.702 27.658-1.742 56.484-4.158 83.982-5.652 7.05-14.41 8.364-22.11 12.048.966 1.658 1.868 3.41 3.018 4.946-18.654 10.912-40.84 16.762-61.434 22.708-3.432-8.27-20.254-2.376-24.622.462-1.5.972-1.266 2.48-2.274 3.586-21.292 3.276-43.206 2.128-64.54 0 .932-12.738-12.968-12.736-22.338-12.552-1.38 2.448-2.322 7.044-4.676 8.504-15.422-4.372-52.48-13.93-64.054-24.57-2.862-5.126-14.122-5.98-15.236-10.514l-.924.652c-3.24-.104-5.818-1.09-8.762-2.386-2.312-2.36-7.152-3.75-10.19-4.906.788-5.368-.132-11.462-.464-16.892-1.41-23.096-.544-46.074-1.258-69.162 5.692 1.814 11.33 3.192 17.234 4.094 12.822 1.112 25.242-.198 36.73-6.276 42.474-22.478 64.276-87.506 3.354-105.936l-20.484-6.198c8.448-38.306 37.19-134.89 71.13-158.66 1.378-1.058 2.418-2.718 3.468-4.104 6.316-4.09 11.702-8.742 18.482-12.38"/><path fill="#F95D18" d="M352.558 561.41c5.692 1.814 11.33 3.192 17.234 4.094-.842 22.546-1.488 70.806 4.364 88.6l-.924.652c-3.24-.104-5.818-1.09-8.762-2.386-2.312-2.36-7.152-3.75-10.19-4.906.788-5.368-.132-11.462-.464-16.892-1.41-23.096-.544-46.074-1.258-69.162"/><path fill="#481C11" d="M511.116 571.142c12.84.976 40.552 42.606 43.63 53.126-4.666 18.418-25.308 12.228-40.98 12.202-12.204-.132-39.076 6.394-42.922-10.59-1.692-7.468 30.796-52.71 40.272-54.738"/><path fill="#481C11" d="M281.592 587.408c14.768 14.884 29.882 28.632 46.618 41.288 8.52 6.442 17.952 11.844 26.07 18.768 3.038 1.156 7.878 2.546 10.19 4.906 2.944 1.296 5.522 2.282 8.762 2.386l.924-.652c1.114 4.534 12.374 5.388 15.236 10.514 11.574 10.64 48.632 20.198 64.054 24.57 2.354-1.46 3.296-6.056 4.676-8.504 9.37-.184 23.27-.186 22.338 12.552 21.334 2.128 43.248 3.276 64.54 0 1.008-1.106.774-2.614 2.274-3.586 4.368-2.838 21.19-8.732 24.622-.462 20.594-5.946 42.78-11.796 61.434-22.708-1.15-1.536-2.052-3.288-3.018-4.946 7.7-3.684 16.458-4.998 22.11-12.048 1.844 2.27 3.742 5.3 5.974 7.142 3.544-3.386 8.242-6.24 12.228-9.164 16.878-11.494 32.538-24.058 47.628-37.83 4.604-4.204 16.352-17.51 21.336-19.092 7.558 3.062-15.014 49.366-18.334 55.704-12.244 23.366-43.484 66.944-68.832 78.256-4.7 4.706-10.416 8.018-15.284 12.458-4.258 6.284-8.646 12.426-12.248 19.126-4.582 8.876-6.994 19.082-10.82 28.338-9.612 23.256-20.882 46.532-34.504 67.708-1.798 2.796-13.71 17.834-13.118 19.708-6.68 2.96-11.788 8.316-18.038 11.972-34.404 20.124-59.032 7.21-87.888-9.988-.69-2.696-3.048-5.128-4.726-7.314-19.438-25.342-35.344-53.11-46.312-83.152-3.504-9.6-6.236-19.876-10.512-29.142l-.304-.648c3.386-1.864 4.514-5.514 5.876-8.884.118-5.6 7.014-16.668 9.5-22.2-6.86-4.354-14.78-8.278-22.328-11.276-5.704 5.312-7.774 12.52-10.88 19.488-3.628-2.204-7.242-4.304-11.044-6.194-2.664-2.33-5.614-4.358-8.454-6.472-38.408-28.608-72.666-82.152-79.746-130.622"/><path fill="#FEAD4B" d="M404.544 744.684c29.334 11.854 58.012 24.54 89.676 28.968.462 2.198.038 5.168 0 7.45 7.844.248 15.684.588 23.522 0 .838-2.584 2.51-5.074 3.832-7.45 35.336-6.572 58.214-9.078 92.28-26.69 1.326 3.064 2.596 6.264 4.328 9.124h6.708c-4.582 8.876-6.994 19.082-10.82 28.338-9.612 23.256-20.882 46.532-34.504 67.708-1.798 2.796-13.71 17.834-13.118 19.708-6.68 2.96-11.788 8.316-18.038 11.972-34.404 20.124-59.032 7.21-87.888-9.988-.69-2.696-3.048-5.128-4.726-7.314-19.438-25.342-35.344-53.11-46.312-83.152-3.504-9.6-6.236-19.876-10.512-29.142l-.304-.648c3.386-1.864 4.514-5.514 5.876-8.884"/><path fill="#FC7F24" d="M458.122 680.684c9.37-.184 23.27-.186 22.338 12.552-2.47 9.854-5.452 19.572-8.536 29.248-8.022-3.882-16.202-7.422-24.238-11.276.974-3.314 6.378-20.02 5.76-22.02 2.354-1.46 3.296-6.056 4.676-8.504"/><path fill="#FC7F24" d="M494.22 746.962c9.056-.6 18.256.322 27.354 0-.012 8.936-.836 17.768 0 26.69-1.322 2.376-2.994 4.866-3.832 7.45-7.838.588-15.678.248-23.522 0 .038-2.282.462-5.252 0-7.45-.836-8.734.074-17.89 0-26.69"/><path fill="#FC7F24" d="M630.312 661.534c7.7-3.684 16.458-4.998 22.11-12.048 1.844 2.27 3.742 5.3 5.974 7.142 3.872 6.286 7.6 12.49 12.228 18.258-7.428 4.812-14.726 9.898-22.404 14.302-5.172-7.178-9.236-16.044-14.89-22.708-1.15-1.536-2.052-3.288-3.018-4.946"/><path fill="#FC7F24" d="M545 693.236c1.008-1.106.774-2.614 2.274-3.586 4.368-2.838 21.19-8.732 24.622-.462-.066 8.474 2.166 16.462 3.318 24.798-8.644 1.898-17.38 3.688-26.228 4.29-.83-4.262-2.466-23.012-3.986-25.04"/><path fill="#FC7F24" d="M626.838 718.276c3.862 6.04 6.998 12.332 10.3 18.684-4.258 6.284-8.646 12.426-12.248 19.126h-6.708c-1.732-2.86-3.002-6.06-4.328-9.124-3.156-5.51-6.19-11.12-9.92-16.266 5.89-5.012 15.466-10.42 22.904-12.42"/><path fill="#FC7F24" d="M364.47 652.37c2.944 1.296 5.522 2.282 8.762 2.386l.924-.652c1.114 4.534 12.374 5.388 15.236 10.514-4.942 4.548-7.606 14.494-8.556 20.878-8.592-2.546-16.768-6.956-24.948-10.61 2.398-7.5 5.094-15.456 8.582-22.516"/><path fill="#FC7F24" d="M311.35 845.508c-8.362-2.498-17.132-2.948-25.548-5.262-64.064-17.604-113.944-71.072-127.839-135.866-23.842-111.18-40.91-269.244 41.904-358.272 24.807-26.666 71.063-54.484 108.113-55.848-1.664 5.194-14.146 16.466-18.09 22.136-52.836 75.954-72.362 161.506-72.374 253.792-.01 78.442 15.126 214.264 82 268.29 4.026 3.252 10.326 5.754 11.834 11.03"/><path fill="#FEAD4B" d="M229.144 342.57c16.354 2.574 9.672 13.77 1.79 21.874-14.724 15.134-26.66 31.758-35.563 50.936-4.41 9.498-6.31 23.404-17.39 27.262-31.46-2.06 31.797-93.664 51.163-100.072"/><path fill="#FEAD4B" d="M165.813 455.642c16.41-2.458 16.757 19.74 5.146 26.024-14.882 3.05-15.456-21.044-5.146-26.024"/><path fill="#38394C" d="M352.558 561.41c-29.368-17.79-31.99-29.73-38.678-60.906-3.652-17.028-11.648-48.436-12.284-65.41-.372-9.878 10.126-19.618 20.068-17.89 10.648 1.848 39.234 18.21 52.492 24.01 5.048 2.06 10.082 4.094 15.236 5.88l20.484 6.198c60.922 18.43 39.12 83.458-3.354 105.936-11.488 6.078-23.908 7.388-36.73 6.276-5.904-.902-11.542-2.28-17.234-4.094"/><path fill="#F95D18" d="M307.98 290.26c3.996-1.316 7.34-1.788 11.506-1.826 4.18.376 8.412.122 12.602 0-3.978 5.492-9.562 9.452-14.078 14.448-61.662 68.206-84.024 175.71-83.978 264.788.044 87.696 17.508 193.61 78.464 261.278 4.904 5.444 10.906 10.564 15.072 16.56-3.464-.3-7.34-.776-10.76 0h-5.458c-1.508-5.276-7.808-7.778-11.834-11.03-66.874-54.026-82.01-189.848-82-268.29.012-92.286 19.538-177.838 72.374-253.792 3.944-5.67 16.426-16.942 18.09-22.136"/><path fill="#F95D18" d="M451.108 281.124c3.442 2.164 6.36 4.642 9.414 7.31-33.94 23.77-62.682 120.354-71.13 158.66-5.154-1.786-10.188-3.82-15.236-5.88 12-47.562 18.052-80.384 45.834-124.384 5.336-8.452 21.758-33.596 31.118-35.706"/><path fill="#F95D18" d="M375.884 748.336c5.554 2.064 10.702 4.802 15.832 7.75 2.216-2.686 3.786-5.624 6.952-2.518l.304.648c4.276 9.266 7.008 19.542 10.512 29.142 10.968 30.042 26.874 57.81 46.312 83.152 1.678 2.186 4.036 4.618 4.726 7.314-3.018-1.398-6.28-2.414-9.414-3.536-21.972-4.068-56.602-69.712-63.466-88.686-3.992-11.032-6.688-22.662-11.758-33.266"/><path fill="#F95D18" d="M369.792 724.502c3.802 1.89 7.416 3.99 11.044 6.194-2.318 4.604-4.668 9.24-6.68 13.988-2.926-2.464-3.788-16.09-4.364-20.182"/><path fill="#2FC230" d="M607.138 123.103c16.684 4.582 31.712 29.14 31.278 45.311-.334 12.447-13.18 12.462-22.384 14.434-60.786 13.022-58.006 49.052-59.36 101.482-5.082-4.89-10.384-8.596-16.292-12.38l-1.79-.684c-19.022-7.17-37.396-7.808-56.118.684-6.78 3.638-12.166 8.29-18.482 12.38 1.844-6.448 2.062-14.52 3.34-21.286 13.892-73.527 69.312-119.913 139.808-139.941"/><path fill="#1A842B" d="M607.138 123.103c16.684 4.582 31.712 29.14 31.278 45.311-.334 12.447-13.18 12.462-22.384 14.434-60.786 13.022-58.006 49.052-59.36 101.482-5.082-4.89-10.384-8.596-16.292-12.38-.476-66.09 17.706-91.762 82.984-106.752-3.548-10.004-7.532-19.677-16.226-26.287-8.018 1.517-16.01 5.197-23.432 8.553-49.94 22.585-81.468 50.146-97.264 104.024-1.936 6.604-4.016 13.532-3.97 20.462-6.78 3.638-12.166 8.29-18.482 12.38 1.844-6.448 2.062-14.52 3.34-21.286 13.892-73.527 69.312-119.913 139.808-139.941"/></svg>